<?xml version="1.0" standalone="no"?><!DOCTYPE svg PUBLIC "-//W3C//DTD SVG 1.1//EN" "http://www.w3.org/Graphics/SVG/1.1/DTD/svg11.dtd"><svg t="1606911292812" class="icon" viewBox="0 0 1024 1024" version="1.1" xmlns="http://www.w3.org/2000/svg" p-id="7239" xmlns:xlink="http://www.w3.org/1999/xlink" width="200" height="200"><defs><style type="text/css"></style></defs><path d="M544.675503 255.854901c5.956863 3.574118 11.516602 7.54536 16.679217 12.31085 4.765491 5.162615 8.736733 10.722354 12.310851 16.679217 3.176994 5.956863 5.162615 12.707975 6.751111 19.061963 1.191373 6.751112 1.191373 13.899348 1.191373 20.650459-1.191373 6.751112-2.382745 13.502223-4.765491 19.856211-2.77987 6.353987-6.353987 12.310851-10.722354 17.473465-4.765491 5.162615-9.928105 9.928105-15.487844 13.899348-5.956863 3.574118-11.913726 6.353987-18.267714 8.736733-6.353987 1.985621-13.502223 2.77987-20.253335 3.176993v19.061963c8.736733-0.397124 17.473465-1.588497 25.813074-3.971242 8.339609-2.77987 16.282093-6.353987 23.430329-11.119478 7.148236-5.162615 13.899348-11.119478 19.459086-17.473466 5.559739-6.751112 9.928105-14.693596 13.502224-22.238956 3.176994-7.942484 5.162615-16.679217 6.353987-25.41595 0.397124-8.736733 0.397124-17.87059-1.191372-26.210198-1.985621-8.339609-4.765491-16.679217-8.736733-24.621701-4.368366-7.54536-9.530981-14.693596-15.487845-21.047584-6.353987-5.956863-13.502223-11.119478-21.047583-15.487844-7.942484-3.971242-15.884969-6.751112-24.621701-8.736733-8.736733-1.588497-17.473465-1.985621-26.210199-1.191373-8.736733 1.191373-17.076341 3.176994-25.415949 6.353988-7.942484 3.574118-15.487844 7.942484-22.238957 13.502223-6.751112 5.956863-12.707975 12.310851-17.473465 19.459087-4.765491 7.54536-8.339609 15.487844-11.119478 23.430328-2.382745 8.339609-3.574118 17.076341-3.971242 25.813074h19.061962c0.397124-7.148236 1.191373-13.899348 3.176994-20.253335 2.382745-6.353987 5.162615-12.707975 8.736733-18.267714 3.971242-5.559739 8.736733-10.722354 13.899347-15.487844 5.559739-4.368366 11.516602-7.54536 17.473466-10.722354 6.353987-2.382745 13.105099-3.971242 19.85621-4.76549 7.148236-0.397124 14.296472 0 20.65046 1.191372s12.707975 3.574118 18.664838 6.353988z" fill="#F2F2F2" p-id="7240"></path><path d="M443.408828 234.410193c8.339609-6.751112 17.473465-11.913726 27.401571-16.282093 9.928105-3.971242 20.253335-6.353987 30.578564-7.54536 5.559739 0 10.722354-0.794248 15.884969 0h5.956863l1.985621 0.397124c2.77987 0.397124 5.162615 0.794248 7.942485 1.191373 10.32523 2.382745 20.253335 5.559739 29.784316 10.722354 9.133857 5.162615 17.87059 11.516602 25.41595 19.061962 7.54536 7.942484 13.899348 16.282093 19.061962 25.41595 4.765491 9.530981 8.339609 19.459087 10.722354 29.784316 0.397124 2.77987 0.794248 5.162615 1.191372 7.942484l0.397125 1.985622v5.956863c0.794248 5.162615-0.397124 10.722354 0 15.884968-1.588497 10.722354-3.574118 21.047583-7.545361 30.578565-4.368366 9.530981-9.530981 18.664838-16.282092 27.401571-7.148236 7.942484-15.09072 15.09072-23.430329 21.444708-8.736733 5.956863-18.664838 10.32523-28.592944 13.502223-10.32523 3.176994-20.650459 4.368366-31.372813 4.76549v19.061963c12.707975-0.397124 25.018826-1.985621 36.932552-5.559739 11.913726-3.971242 23.033205-9.133857 33.755559-15.884969 10.32523-7.148236 19.459087-15.487844 27.798695-25.018825 7.942484-9.928105 14.296472-20.650459 19.061962-32.167062 4.765491-11.516602 7.54536-23.827453 9.133857-36.138303 0-6.353987 1.191373-12.707975 0.397124-18.664839v-4.76549-2.382746l-0.397124-2.382745c-0.397124-3.176994-0.794248-6.353987-1.191373-9.133857-2.77987-12.310851-6.751112-23.827453-12.707974-34.946931-5.956863-10.722354-13.502223-21.047583-22.238957-30.18144-9.133857-8.736733-19.061962-16.282093-30.18144-22.238956s-23.033205-9.928105-34.946931-12.707975c-3.176994-0.397124-6.353987-0.794248-9.133857-1.191373l-2.382745-0.397124H519.259553c-6.353987-0.794248-12.707975 0-18.664838 0.397124-12.310851 1.588497-24.621701 4.368366-36.138304 9.133857-11.516602 5.162615-22.238956 11.516602-32.167061 19.061963-9.530981 8.339609-17.87059 17.473465-25.018826 27.798695-6.751112 10.32523-11.913726 21.841832-15.884968 33.755558-3.574118 11.913726-5.162615 24.224577-5.559739 36.932552h19.061962c0.397124-10.722354 1.588497-21.444708 4.76549-31.372813 3.176994-9.928105 7.54536-19.856211 13.502224-28.592944 4.765491-9.928105 11.913726-17.87059 20.253335-24.621701z" fill="#F2F2F2" p-id="7241"></path><path d="M419.184251 204.625877c11.119478-9.133857 23.827453-16.282093 36.932552-22.238956 13.105099-5.559739 27.401571-8.736733 41.698042-10.32523 7.148236 0 14.296472-1.191373 21.444708-0.397124l5.559739 0.397124h2.77987l2.779869 0.397124 10.722354 1.588497c13.899348 3.176994 27.798695 7.54536 40.50667 14.296472 12.707975 7.148236 24.224577 15.487844 34.549807 25.41595 9.928105 10.32523 18.664838 21.841832 25.415949 34.549807 6.751112 12.707975 11.516602 26.210198 14.296472 40.50667l1.588497 10.722353 0.397124 2.77987v2.779869l0.397124 5.55974c0.794248 7.148236 0 14.296472-0.397124 21.444707-1.588497 14.296472-5.162615 28.195819-10.325229 41.698043-5.559739 13.105099-13.105099 25.41595-22.238956 36.932552-9.530981 11.119478-20.253335 20.650459-31.769938 28.990068-11.913726 7.942484-25.018826 13.899348-38.918173 18.267714-13.899348 3.971242-28.195819 5.956863-42.492291 6.353987v19.061962c16.282093-0.397124 32.564186-2.382745 48.05203-7.148236 15.487844-5.162615 30.18144-11.913726 43.683664-20.650459 13.502223-9.133857 25.41595-20.253335 36.138304-32.564185 10.32523-12.707975 18.664838-26.607322 25.018825-41.698043 6.353987-15.09072 9.928105-30.975689 11.913727-46.860658 0.397124-7.942484 1.191373-16.282093 0.397124-24.224577l-0.397124-5.956863v-3.176994l-0.397125-3.176993-1.985621-11.913727c-3.574118-15.884969-8.736733-31.372813-16.282093-45.669285-7.942484-14.296472-17.473465-27.401571-28.990067-38.918173-11.516602-11.119478-25.018826-21.047583-38.918173-28.990068-14.296472-7.54536-29.784316-12.707975-45.669285-16.282092l-11.913727-1.985621-3.176993-0.397125h-3.176994l-5.956863-0.397124c-7.942484-0.794248-16.282093 0-24.224578 0.397124-16.282093 1.985621-32.167061 5.559739-46.860657 11.913727-14.693596 6.353987-28.990068 14.693596-41.698043 25.018825-12.310851 10.722354-23.430329 22.63608-32.564185 36.138304-8.736733 13.502223-15.884969 28.592944-20.65046 43.683664-4.765491 15.487844-6.751112 31.769937-7.148235 48.05203h19.061962c0.397124-14.296472 2.382745-28.592944 6.353987-42.492291 4.368366-13.502223 10.32523-26.607322 18.267714-38.918173 7.54536-12.310851 17.076341-23.033205 28.19582-32.564186z" fill="#F2F2F2" p-id="7242"></path><path d="M394.959673 175.238685c14.296472-11.516602 29.784316-20.650459 46.463534-27.798695 16.679217-6.751112 34.549807-11.119478 52.420396-13.105099 9.133857-0.397124 18.267714-1.191373 27.004447-0.397124l6.751112 0.397124c1.191373 0 2.382745 0 3.574117 0.397124l3.176994 0.397124 13.502224 1.985621c17.87059 3.971242 34.946931 9.928105 50.831899 18.267714 15.884969 8.736733 30.578565 19.459087 43.683664 32.167062 12.707975 13.105099 23.430329 27.798695 32.167061 43.683663 8.339609 15.884969 14.296472 33.358434 18.267714 50.8319l1.985621 13.502223 0.397125 3.176994c0 1.191373 0 2.382745 0.397124 3.574118l0.397124 6.751112c0.794248 9.133857 0 18.267714-0.397124 27.004446-1.985621 17.87059-6.353987 35.741179-13.105099 52.420397-7.148236 16.679217-16.282093 32.167061-27.798695 46.463533-11.516602 13.899348-25.018826 26.210198-40.109546 36.535428-15.09072 9.928105-31.769937 17.473465-48.846279 23.033204-17.473465 5.162615-35.344055 7.54536-53.611769 7.942485v19.061962c19.856211-0.397124 39.712422-3.176994 59.171508-8.736733 19.061962-5.956863 37.329676-14.693596 54.008894-25.41595 16.282093-11.516602 31.372813-25.018826 44.080788-40.109545 12.707975-15.487844 22.63608-32.96131 30.578564-51.229024 7.54536-18.664838 12.310851-38.123925 14.693596-57.980136 0.397124-9.928105 1.588497-19.856211 0.397124-29.784316l-0.397124-7.54536c0-1.191373 0-2.382745-0.397124-3.574118l-0.397124-3.574118-2.382746-14.693596c-4.368366-19.459087-10.722354-38.521049-20.253335-56.391638-9.530981-17.473465-21.444708-33.755558-35.741179-48.05203-14.296472-13.899348-30.578565-25.813074-48.05203-35.74118-17.87059-9.530981-36.535428-15.884969-56.391639-20.253335l-14.693596-2.382745-3.574118-0.397124c-1.191373 0-2.382745 0-3.574118-0.397125l-7.54536-0.397124c-9.928105-0.794248-19.856211 0-29.784316 0.397124-19.856211 2.382745-39.315297 6.751112-57.980135 14.693596-18.267714 7.942484-35.741179 18.267714-51.229024 30.578565-15.09072 12.707975-28.592944 27.798695-40.109546 44.080788-11.119478 16.679217-19.459087 34.946931-25.41595 54.008893C311.563588 278.093857 308.783719 297.950068 308.386594 317.806278h19.061963c0.397124-18.267714 2.77987-36.138304 7.942484-53.611769 5.559739-17.076341 13.105099-33.755558 23.033205-48.846278 10.32523-14.693596 22.63608-28.195819 36.535427-40.109546z" fill="#F2F2F2" p-id="7243"></path><path d="M370.735096 145.851493c17.076341-13.899348 35.741179-25.018826 55.994515-33.755558 20.253335-8.339609 41.698043-13.502223 63.539874-15.884969 10.722354-0.397124 21.841832-1.588497 32.564186-0.397124l8.339608 0.397124c1.191373 0 2.77987 0 3.971243 0.397124l3.971242 0.794249 16.282093 2.382745c21.444708 4.765491 42.095167 11.913726 61.554253 21.841832 19.061962 10.722354 36.932552 23.827453 52.420397 38.918173 15.09072 15.487844 28.195819 33.358434 38.918173 52.420396 10.32523 19.459087 17.473465 40.109546 21.841832 61.554254l2.382745 16.282093 0.794248 3.971242c0 1.191373 0 2.77987 0.397124 3.971242l0.397125 8.339609c0.794248 10.722354 0 21.841832-0.397125 32.564185-2.382745 21.841832-7.54536 43.28654-15.884968 63.539875-8.736733 20.253335-19.856211 38.918173-33.755559 55.994514-13.899348 16.679217-30.18144 31.372813-48.449154 43.683664-18.267714 11.913726-38.123925 21.444708-59.171508 27.798695-21.047583 6.353987-42.889415 9.133857-64.731247 9.530981v19.061963c23.827453-0.397124 47.257782-3.574118 70.290986-10.32523 22.63608-7.148236 44.477912-17.076341 64.334123-30.18144 19.459087-13.502223 37.329676-29.387192 52.420396-47.654906 15.09072-18.267714 27.004447-38.918173 36.535428-60.760005 9.133857-21.841832 14.693596-45.272161 17.076342-68.70249 0.794248-11.913726 1.588497-23.827453 0.794248-35.344055l-0.397124-8.736733c0-1.588497 0-2.77987-0.397124-4.368366l-0.794249-4.368366-2.779869-17.473466c-4.765491-23.033205-12.707975-45.669285-23.827453-66.716868-11.516602-20.650459-25.813074-40.109546-42.095167-56.788763-17.076341-16.679217-36.138304-30.975689-56.788763-42.095167-21.047583-11.119478-43.683664-19.061962-66.716868-23.827453l-17.473466-2.779869-4.368366-0.794249c-1.588497 0-2.77987 0-4.368366-0.397124l-9.530982-1.191373c-11.913726-1.191373-23.827453 0-35.344055 0.794249-23.430329 2.77987-46.860657 8.339609-68.702489 17.076341-21.841832 9.530981-42.492291 21.444708-60.760005 36.535428-18.267714 15.09072-34.152683 32.96131-47.654906 52.420396-13.105099 19.856211-23.033205 41.698043-30.18144 64.334123-6.751112 22.63608-9.928105 46.463533-10.32523 70.290987H289.324632c0.397124-21.841832 3.176994-43.683664 9.530981-64.731248 6.751112-20.650459 15.884969-40.903794 27.798695-59.171508 12.707975-18.267714 27.401571-34.549807 44.080788-48.449154z" fill="#F2F2F2" p-id="7244"></path><path d="M791.289641 304.304055l-0.397124-10.32523c0-1.588497 0-3.574118-0.397125-5.162614l-0.794248-5.162615c-0.794248-6.751112-1.985621-13.502223-3.176994-20.253335-5.559739-27.004447-14.693596-53.214645-27.798695-77.439222s-29.784316-46.463533-48.846278-65.92262c-19.459087-19.061962-41.698043-35.741179-65.92262-48.846279-24.224577-13.105099-50.434775-21.841832-77.439222-27.798695-6.751112-1.191373-13.502223-1.985621-20.253335-3.176993l-5.162615-0.397125c-1.588497 0-3.574118-0.397124-5.162615-0.397124l-10.32523-0.397124c-13.502223-1.191373-27.401571 0-40.903794 0.794248-27.401571 3.176994-54.406018 9.530981-79.821967 19.856211-25.41595 10.722354-49.243403 25.018826-70.290986 42.095167-21.047583 17.473465-39.712422 38.123925-55.200266 60.760005-15.09072 23.033205-27.004447 48.05203-35.344055 74.262228-7.942484 26.607322-11.516602 54.008893-11.913727 81.01334h19.061962c0.397124-25.41595 3.971242-51.229024 11.119478-75.850725a268.853094 268.853094 0 0 1 32.564186-69.099613c14.296472-21.047583 31.769937-40.109546 51.229024-56.788763 19.856211-16.282093 42.095167-29.387192 65.525496-39.315298 23.827453-9.928105 48.846279-15.884969 74.262228-18.664838 12.707975-0.794248 25.41595-1.588497 38.123925-0.794248l9.530981 0.397124c1.588497 0 3.176994 0 4.76549 0.397124l4.765491 0.794249c6.353987 0.794248 12.707975 1.985621 19.061962 2.779869 25.018826 5.162615 49.640527 13.899348 72.276608 25.813074 22.63608 12.310851 43.28654 27.798695 61.554253 45.669285 17.87059 18.267714 33.358434 38.918173 45.669285 61.554254 11.913726 22.63608 20.650459 47.257782 25.813074 72.276607 1.191373 6.353987 1.985621 12.707975 2.779869 19.061962l0.794249 4.765491c0 1.588497 0.397124 3.176994 0.397124 4.76549l0.397124 9.530981c1.191373 12.707975 0 25.41595-0.794248 38.123925-2.77987 25.41595-8.736733 50.434775-18.664838 74.262229-9.928105 23.430329-23.430329 45.669285-39.315298 65.525495-16.282093 19.459087-35.344055 36.932552-56.788763 51.229024-21.444708 14.296472-44.875036 25.018826-69.099613 32.564186-24.621701 7.54536-50.037651 10.722354-75.850725 11.119478v19.061962c27.401571-0.397124 54.803142-3.971242 81.01334-11.913726 26.210198-8.339609 51.229024-19.856211 74.262228-35.344056 22.63608-15.487844 43.28654-34.152683 60.760005-55.200266 17.076341-21.444708 31.372813-45.272161 42.095167-70.290986 10.32523-25.41595 17.076341-52.420396 19.856211-79.821967 1.985621-12.707975 2.77987-26.607322 1.985621-40.109546z" fill="#F2F2F2" p-id="7245"></path><path d="M512.111317 635.902775v-19.061962c28.990068-0.397124 58.37726-4.368366 86.573079-12.707975 28.195819-8.736733 54.803142-21.444708 79.424843-37.726801 24.224577-16.679217 46.066409-36.138304 64.731247-58.774384 18.267714-22.63608 33.755558-48.05203 45.272161-75.056476 11.119478-27.401571 18.267714-55.994514 21.444708-85.381707 0.794248-14.693596 1.985621-28.990068 0.794248-43.683663l-0.794248-11.119478c0-1.985621 0-3.574118-0.397125-5.559739l-0.794248-5.559739c-1.191373-7.148236-1.985621-14.693596-3.176994-21.841832-5.956863-28.592944-15.884969-56.788763-29.784316-82.601837s-31.769937-49.640527-52.023272-70.290986c-21.047583-20.650459-44.477912-38.123925-70.290986-52.023273S599.08152 31.082595 570.488577 24.728607c-7.148236-1.191373-14.296472-2.382745-21.841832-3.176994l-5.559739-0.794248c-1.985621-0.397124-3.574118-0.397124-5.559739-0.397124l-11.119478-0.794249c-14.693596-1.191373-29.387192 0-43.683664 0.794249-28.990068 3.176994-57.980135 9.928105-85.381706 21.444707-27.004447 11.516602-52.420396 26.607322-75.056477 45.272161-22.63608 18.664838-42.095167 40.50667-58.774384 64.731247-16.282093 24.621701-28.592944 51.229024-37.7268 79.424843C217.445149 259.429019 213.473907 288.816211 213.076783 317.806278H194.01482c0.397124-30.975689 4.765491-62.348502 13.502224-92.132818 9.530981-29.784316 22.63608-58.37726 40.109545-84.587458 17.473465-25.813074 38.521049-48.846279 62.348502-69.099613 24.224577-19.459087 51.229024-35.741179 80.219092-48.05203 28.990068-11.913726 59.568632-19.459087 90.544321-22.636081C496.226348 0.50403 511.714193-0.687343 527.202037 0.50403l11.516603 0.794248c1.985621 0 3.971242 0.397124 5.956863 0.397125l5.956863 0.794248c7.54536 1.191373 15.487844 2.382745 23.033205 3.574118 30.578565 6.353987 60.362881 16.679217 88.161575 31.372813 27.401571 15.09072 52.817521 33.755558 74.659353 55.59739 21.841832 22.238956 40.50667 47.257782 55.59739 74.659353 14.693596 27.798695 25.018826 57.583011 31.372813 88.161576 1.191373 7.54536 2.382745 15.487844 3.574118 23.033204l0.794249 5.956863c0.397124 1.985621 0.397124 3.971242 0.397124 5.956864l0.794248 11.516602c1.191373 15.487844 0 30.975689-0.794248 46.463533-3.574118 30.975689-10.722354 61.554253-22.636081 90.544321-12.310851 28.990068-28.195819 55.994514-48.05203 80.219092-19.856211 23.827453-43.28654 44.875036-69.099613 62.348502-26.210198 17.076341-54.406018 30.578565-84.587458 40.109546-29.784316 9.133857-60.760005 13.502223-91.735694 13.899347z" fill="#F2F2F2" p-id="7246"></path><path d="M553.80936 239.175684c7.54536 4.368366 14.693596 9.530981 21.047583 15.487844 5.956863 6.353987 11.119478 13.502223 15.487845 21.047584 3.971242 7.942484 6.751112 15.884969 8.736732 24.621701 1.588497 8.736733 1.985621 17.473465 1.191373 26.210198-1.191373 8.736733-3.176994 17.076341-6.353987 25.41595-3.574118 7.942484-7.942484 15.487844-13.502224 22.238956-5.956863 6.751112-12.310851 12.707975-19.459086 17.473466-7.54536 4.765491-15.487844 8.339609-23.430329 11.119478-8.339609 2.382745-17.076341 3.574118-25.813074 3.971242v19.061962c10.722354-0.397124 21.444708-1.588497 31.372813-4.765491 9.928105-3.176994 19.856211-7.54536 28.592943-13.502223s16.679217-13.502223 23.430329-21.444708c6.751112-8.339609 11.913726-17.473465 16.282093-27.40157 3.971242-9.928105 6.353987-20.253335 7.54536-30.578565 0-5.559739 0.794248-10.722354 0-15.884969v-3.971242-1.985621l-0.397124-1.985621c-0.397124-2.77987-0.794248-5.162615-1.191373-7.942484-2.382745-10.32523-5.559739-20.253335-10.722354-29.784316-5.162615-9.133857-11.516602-17.87059-19.061962-25.41595-7.942484-7.54536-16.282093-13.899348-25.41595-19.061963-9.530981-4.765491-19.459087-8.339609-29.784316-10.722353-2.77987-0.397124-5.162615-0.794248-7.942484-1.191373l-1.985621-0.397124h-5.956864c-5.162615-0.794248-10.722354 0.397124-15.884968 0-10.722354 1.588497-21.047583 3.574118-30.578565 7.54536-9.530981 4.368366-18.664838 9.530981-27.401571 16.282093-7.942484 7.148236-15.09072 15.09072-21.444707 23.430328-5.956863 8.736733-10.32523 18.664838-13.502224 28.592944-3.176994 10.32523-4.368366 20.650459-4.76549 31.372813h19.061962c0.397124-8.736733 1.588497-17.473465 3.971242-25.813074 2.77987-8.339609 6.353987-16.282093 11.119478-23.430329 5.162615-7.148236 11.119478-13.899348 17.473466-19.459086 6.751112-5.559739 14.693596-9.928105 22.238956-13.502224 7.942484-3.176994 16.679217-5.162615 25.41595-6.353987 8.736733-0.397124 17.87059-0.397124 26.210198 1.191373 9.530981 2.77987 17.87059 5.559739 25.41595 9.530981z" fill="" p-id="7247"></path><path d="M431.097977 219.319473c9.928105-7.942484 20.650459-14.296472 32.167062-19.061962 11.516602-4.765491 23.827453-7.54536 36.138303-9.133857 6.353987 0 12.707975-1.191373 18.664838-0.397125H525.216416l2.382746 0.397125c3.176994 0.397124 6.353987 0.794248 9.133856 1.191372 12.310851 2.77987 23.827453 6.751112 34.946931 12.707975 10.722354 5.956863 21.047583 13.502223 30.181441 22.238956 8.736733 9.133857 16.282093 19.061962 22.238956 30.181441s9.928105 23.033205 12.707975 34.946931c0.397124 3.176994 0.794248 6.353987 1.191372 9.133857l0.397125 2.382745V311.055167c0.794248 6.353987 0 12.707975-0.397125 18.664838-1.588497 12.310851-4.368366 24.621701-9.133856 36.138303-5.162615 11.516602-11.516602 22.238956-19.061963 32.167062-8.339609 9.530981-17.473465 17.87059-27.798695 25.018826-10.32523 6.751112-21.841832 11.913726-33.755558 15.884968-11.913726 3.574118-24.224577 5.162615-36.932552 5.559739v19.061963c14.296472-0.397124 28.592944-2.382745 42.492291-6.353988 13.502223-4.368366 26.607322-10.32523 38.918173-18.267714 11.913726-8.339609 22.63608-17.87059 31.769937-28.990068s16.282093-23.827453 22.238956-36.932552c5.559739-13.105099 8.736733-27.401571 10.32523-41.698042 0-7.148236 1.191373-14.296472 0.397124-21.444708l-0.397124-5.559739v-2.779869l-0.397124-2.77987-1.588497-10.722354c-3.176994-13.899348-7.54536-27.798695-14.296472-40.50667-7.148236-12.707975-15.487844-24.224577-25.41595-34.549807-10.32523-9.928105-21.841832-18.664838-34.549807-25.415949-12.707975-6.751112-26.210198-11.516602-40.50667-14.296472l-10.722353-1.588497-2.77987-0.397124h-2.779869l-5.559739-0.397124c-7.148236-0.794248-14.296472 0-21.444708 0.397124-14.296472 1.588497-28.195819 5.162615-41.698043 10.325229-13.105099 5.559739-25.41595 13.105099-36.932552 22.238956-11.119478 9.530981-20.650459 20.253335-28.990068 31.769938-7.942484 11.913726-13.899348 25.018826-18.267713 38.918173-3.971242 13.899348-5.956863 28.195819-6.353988 42.492291h19.856211c0.397124-12.707975 1.985621-25.018826 5.559739-36.932552 3.971242-11.913726 9.133857-23.033205 15.884969-33.755558 7.148236-9.530981 15.487844-18.664838 25.018825-27.004447z" fill="" p-id="7248"></path><path d="M406.8734 189.932281c12.707975-10.32523 26.607322-18.664838 41.698043-25.018826 15.09072-6.353987 30.975689-9.928105 46.860657-11.913726 7.942484-0.397124 16.282093-1.191373 24.224577-0.397124l5.956863 0.397124h3.176994l3.176994 0.397124 11.913726 1.985621c15.884969 3.574118 31.372813 8.736733 45.669285 16.282093 14.296472 7.942484 27.401571 17.473465 38.918173 28.990068 11.119478 11.516602 21.047583 25.018826 28.990068 38.918173 7.54536 14.296472 12.707975 29.784316 16.282093 45.669285l1.985621 11.913726 0.397124 3.176994v3.176994l0.397124 5.956863c0.794248 7.942484 0 16.282093-0.397124 24.224577-1.985621 16.282093-5.559739 32.167061-11.913726 46.860657-6.353987 14.693596-14.693596 28.990068-25.018826 41.698043-10.722354 12.310851-22.63608 23.430329-36.138304 32.564186-13.502223 8.736733-28.592944 15.884969-43.683663 20.650459-15.487844 4.765491-31.769937 6.751112-48.05203 7.148236v19.061962c18.267714-0.397124 36.138304-2.77987 53.611769-7.942484 17.076341-5.559739 33.755558-13.105099 48.846278-23.033205 15.09072-10.32523 28.592944-22.63608 40.109546-36.535427 11.516602-14.296472 20.650459-29.784316 27.798695-46.463534 6.751112-16.679217 11.119478-34.549807 13.105099-52.420396 0.397124-9.133857 1.191373-18.267714 0.397125-27.004447l-0.397125-6.751111c0-1.191373 0-2.382745-0.397124-3.574118l-0.397124-3.176994-1.985621-13.502223c-3.971242-17.87059-9.928105-34.946931-18.267714-50.8319-8.736733-15.884969-19.459087-30.578565-32.167062-43.683664-13.105099-12.707975-27.798695-23.430329-43.683663-32.167061-15.884969-8.339609-33.358434-14.296472-50.8319-18.267714l-12.707975-1.191373-3.176994-0.397124c-1.191373 0-2.382745 0-3.574117-0.397124l-6.751112-0.397124c-9.133857-0.794248-18.267714 0-27.004447 0.397124-17.87059 1.985621-35.741179 6.353987-52.420396 13.105099-16.679217 7.148236-32.167061 16.282093-46.463534 27.798695-13.899348 11.516602-26.210198 25.018826-36.535427 40.109546-9.928105 15.09072-17.473465 31.769937-23.033205 48.846278-5.162615 17.473465-7.54536 35.344055-7.942484 53.611769h19.061962c0.397124-16.282093 2.382745-32.564186 7.148236-48.05203 5.162615-15.487844 11.913726-30.18144 20.650459-43.683663 9.133857-13.502223 20.253335-25.41595 32.564186-36.138304z" fill="" p-id="7249"></path><path d="M382.648823 160.545089c15.487844-12.707975 32.96131-22.63608 51.229024-30.578565C452.542685 122.421164 472.001771 117.655674 491.857982 115.272928c9.928105-0.397124 19.856211-1.588497 29.784316-0.397124l7.54536 0.397124c1.191373 0 2.382745 0 3.574118 0.397125l3.574118 0.397124 14.693596 2.382745c19.459087 4.368366 38.521049 10.722354 56.391639 20.253335 17.473465 9.530981 33.755558 21.444708 48.05203 35.74118 13.899348 14.296472 25.813074 30.578565 35.741179 48.05203 9.530981 17.87059 15.884969 36.535428 20.253335 56.391638l2.382746 14.693596 0.397124 3.574118c0 1.191373 0 2.382745 0.397124 3.574118l0.397124 7.54536c0.794248 9.928105 0 19.856211-0.397124 29.784316-2.382745 19.856211-6.751112 39.315297-14.693596 57.980136-7.942484 18.267714-18.267714 35.741179-30.578564 51.229024-12.707975 15.09072-27.798695 28.592944-44.080788 40.109545-16.679217 11.119478-34.946931 19.459087-54.008894 25.41595-19.061962 5.559739-39.315297 8.339609-59.171508 8.736733v19.061962c21.841832-0.397124 43.683664-3.176994 64.731247-9.530981 20.650459-6.751112 40.903794-15.884969 59.171508-27.798695 17.87059-12.310851 34.152683-27.004447 48.449155-43.683664 13.899348-17.076341 25.018826-35.741179 33.755558-55.994514 8.339609-20.253335 13.502223-41.698043 15.884969-63.539875 0.397124-10.722354 1.588497-21.841832 0.397124-32.564185l-0.397124-8.339609c0-1.191373 0-2.77987-0.397125-3.971242l-0.794248-3.971242-2.382745-16.282093c-4.765491-21.444708-11.913726-42.095167-21.841832-61.554253-10.722354-19.061962-23.827453-36.932552-38.918173-52.420397-15.487844-15.09072-33.358434-28.195819-52.420397-38.918173-19.459087-10.32523-40.109546-17.473465-61.554253-21.841832l-16.282093-2.382745-3.971242-0.794249c-1.191373 0-2.77987 0-3.971242-0.397124l-8.339609-0.397124c-10.722354-0.794248-21.841832 0-32.564186 0.397124-21.841832 2.382745-43.28654 7.54536-63.539874 15.884969-20.253335 8.736733-38.918173 19.856211-55.994514 33.755558-16.679217 13.899348-31.372813 30.18144-43.683664 48.449155-11.913726 18.267714-21.444708 38.123925-27.798695 59.171508C292.501626 274.122615 289.721756 295.964447 289.324632 317.806278h19.061962c0.397124-19.856211 3.176994-39.712422 8.736733-59.171508 5.956863-19.061962 14.693596-37.329676 25.41595-54.008893 11.516602-16.282093 25.018826-30.975689 40.109546-44.080788z" fill="" p-id="7250"></path><path d="M358.424246 131.157897c18.267714-15.09072 38.918173-27.004447 60.760005-36.535428 21.841832-9.133857 45.272161-14.693596 68.702489-17.076341 11.913726-0.794248 23.827453-1.588497 35.344055-0.794249l8.736733 0.397125c1.588497 0 2.77987 0 4.368366 0.397124l4.368367 0.794248 17.473465 2.77987c23.033205 4.765491 45.669285 12.707975 66.716868 23.827453 20.650459 11.516602 40.109546 25.813074 56.788763 42.095167 16.679217 17.076341 30.975689 36.138304 42.095167 56.788762 11.119478 21.047583 19.061962 43.683664 23.827453 66.716869l2.77987 17.473465 0.794248 4.368367c0 1.588497 0 2.77987 0.397124 4.368366l0.397124 8.736733c1.191373 11.913726 0 23.827453-0.794248 35.344055-2.77987 23.430329-8.339609 46.860657-17.076341 68.702489-9.530981 21.841832-21.444708 42.492291-36.535428 60.760005-15.09072 18.267714-32.96131 34.152683-52.420397 47.654906-19.856211 13.105099-41.698043 23.033205-64.334123 30.18144-22.63608 6.751112-46.463533 9.928105-70.290986 10.32523v19.061962c25.41595-0.397124 51.229024-3.971242 75.850725-11.119478a268.853094 268.853094 0 0 0 69.099614-32.564185c21.047583-14.296472 40.109546-31.769937 56.788763-51.229024 16.282093-19.856211 29.387192-42.095167 39.315297-65.525496 9.928105-23.827453 15.884969-48.846279 18.664838-74.262228 0.794248-12.707975 1.588497-25.41595 0.794249-38.123925l-0.397124-9.530981c0-1.588497 0-3.176994-0.397125-4.76549l-0.794248-4.765491c-0.794248-6.353987-1.985621-12.707975-2.77987-19.061962-5.162615-25.018826-13.899348-49.640527-25.813074-72.276608-12.310851-22.63608-27.798695-43.28654-45.669284-61.554253-18.267714-17.87059-38.918173-33.358434-61.554254-45.669285-22.63608-11.913726-47.257782-20.650459-72.276607-25.813074-6.353987-1.191373-12.707975-1.985621-19.061963-2.779869l-4.76549-0.794249c-1.588497 0-3.176994-0.397124-4.765491-0.397124l-9.530981-0.397124c-12.707975-1.191373-25.41595 0-38.123925 0.794248-25.41595 2.77987-50.434775 8.736733-74.262228 18.664838-23.430329 9.928105-45.669285 23.430329-65.525495 39.315298-19.459087 16.282093-36.932552 35.344055-51.229024 56.788762-14.296472 21.444708-25.018826 44.875036-32.564186 69.099614-7.54536 24.621701-10.722354 50.037651-11.119478 75.850725H269.468421c0.397124-23.827453 3.574118-47.257782 10.32523-70.290986 7.148236-22.63608 17.076341-44.477912 30.18144-64.334123 14.296472-18.664838 30.578565-36.535428 48.449155-51.626148z" fill="" p-id="7251"></path><path d="M810.351603 303.112682l-0.794248-11.119478c0-1.985621 0-3.574118-0.397125-5.559739l-0.794248-5.559739c-1.191373-7.148236-1.985621-14.693596-3.176994-21.841832-5.956863-28.592944-15.884969-56.788763-29.784316-82.601836s-31.769937-49.640527-52.023272-70.290987c-21.047583-20.650459-44.477912-38.123925-70.290986-52.023272S599.08152 30.68547 570.488577 24.331483c-7.148236-1.191373-14.296472-2.382745-21.841832-3.176994l-5.559739-0.794248C541.101385 19.963117 539.512888 19.963117 537.527267 19.963117l-11.119478-0.794249c-14.693596-1.191373-29.387192 0-43.683664 0.794249-28.990068 3.176994-57.980135 9.928105-85.381706 21.444707-27.004447 11.516602-52.420396 26.607322-75.056477 45.272161-22.63608 18.664838-42.095167 40.50667-58.774384 64.731247-16.282093 24.621701-28.592944 51.229024-37.7268 79.424843C217.445149 259.429019 213.473907 288.816211 213.076783 317.806278h19.061962c0.397124-27.401571 3.971242-54.803142 11.913727-81.01334 8.339609-26.210198 19.856211-51.229024 35.344055-74.262228 15.487844-22.63608 34.152683-43.28654 55.200266-60.760005 21.444708-17.076341 45.272161-31.372813 70.290986-42.095167 25.41595-10.32523 52.420396-17.076341 79.821967-19.856211 13.502223-0.794248 27.401571-1.985621 40.903794-0.794248l10.32523 0.397124c1.588497 0 3.574118 0 5.162615 0.397124l5.162615 0.794249c6.751112 0.794248 13.502223 1.985621 20.253335 3.176994 27.004447 5.559739 53.214645 14.693596 77.439222 27.798695s46.463533 29.784316 65.92262 48.846278c19.061962 19.459087 35.741179 41.698043 48.846278 65.92262 13.105099 24.224577 21.841832 50.434775 27.798695 77.439222 1.191373 6.751112 1.985621 13.502223 3.176994 20.253335l0.794248 5.162615c0 1.588497 0.397124 3.574118 0.397125 5.162615l0.397124 10.325229c1.191373 13.502223 0 27.401571-0.794249 40.903794-3.176994 27.401571-9.530981 54.406018-19.85621 79.821968-10.722354 25.41595-25.018826 49.243403-42.095167 70.290986-17.473465 21.047583-38.123925 39.712422-60.760005 55.200266-23.033205 15.09072-48.05203 27.004447-74.262229 35.344055-26.607322 7.942484-54.008893 11.516602-81.01334 11.913727v19.061962c28.990068-0.397124 58.37726-4.368366 86.573079-12.707975 28.195819-8.736733 54.803142-21.444708 79.424843-37.7268 24.224577-16.679217 46.066409-36.138304 64.731248-58.774384 18.267714-22.63608 33.755558-48.05203 45.27216-75.056477 11.119478-27.401571 18.267714-55.994514 21.444708-85.381706 0.397124-15.09072 1.191373-29.784316 0.397124-44.477913z" fill="" p-id="7252"></path><path d="M422.758369 705.796637h19.061962c0.397124 7.148236 1.191373 13.899348 3.176994 20.253335 2.382745 6.353987 5.162615 12.707975 8.736732 18.267714 3.971242 5.559739 8.736733 10.722354 13.899348 15.487844 5.559739 4.368366 11.516602 7.54536 17.473465 10.722354 6.353987 2.382745 13.105099 3.971242 19.856211 4.765491 7.148236 0.397124 14.296472 0 20.650459-1.191373 6.751112-1.588497 13.105099-3.574118 19.061963-6.751111 5.956863-3.574118 11.516602-7.54536 16.679217-12.310851 4.765491-5.162615 8.736733-10.722354 12.310851-16.679217 3.176994-5.956863 5.162615-12.707975 6.751111-19.061963 1.191373-6.751112 1.191373-13.899348 1.191373-20.650459-1.191373-6.751112-2.382745-13.502223-4.765491-19.856211-2.77987-6.353987-6.353987-12.310851-10.722354-17.473465-4.765491-5.162615-9.928105-9.928105-15.487844-13.899348-5.956863-3.574118-11.913726-6.353987-18.267714-8.736732-6.353987-1.985621-13.502223-2.77987-20.253335-3.176994v-19.061962c8.736733 0.397124 17.473465 1.588497 25.813074 3.971242 8.339609 2.77987 16.282093 6.353987 23.430329 11.119478 7.148236 5.162615 13.899348 11.119478 19.459086 17.473465 5.559739 6.751112 9.928105 14.693596 13.502224 22.238956 3.176994 7.942484 5.162615 16.679217 6.353987 25.41595 0.397124 8.736733 0.397124 17.87059-1.191372 26.210198-1.985621 8.339609-4.765491 16.679217-8.736733 24.621702-4.368366 7.54536-9.530981 14.693596-15.487845 21.047583-6.353987 5.956863-13.502223 11.119478-21.047583 15.487845-7.942484 3.971242-15.884969 6.751112-24.621701 8.736732-8.736733 1.588497-17.473465 1.985621-26.210199 1.191373-8.736733-1.191373-17.076341-3.176994-25.415949-6.353987-7.942484-3.574118-15.487844-7.942484-22.238957-13.502224-6.751112-5.956863-12.707975-12.310851-17.473465-19.459086-4.765491-7.54536-8.339609-15.487844-11.119478-23.430329-2.77987-7.54536-3.971242-16.282093-4.368366-25.41595z" fill="#F2F2F2" p-id="7253"></path><path d="M619.73198 695.074283c-1.588497-10.722354-3.574118-21.047583-7.545361-30.578564-4.368366-9.530981-9.530981-18.664838-16.282092-27.401571-7.148236-7.942484-15.09072-15.09072-23.430329-21.444708-8.736733-5.956863-18.664838-10.32523-28.592944-13.502223-10.32523-3.176994-20.650459-4.368366-31.372813-4.765491v19.061963c8.736733 0.397124 17.473465 1.588497 25.813074 3.971242 8.339609 2.77987 16.282093 6.353987 23.430329 11.119478 7.148236 5.162615 13.899348 11.119478 19.459087 17.473465 5.559739 6.751112 9.928105 14.693596 13.502223 22.238956 3.176994 7.942484 5.162615 16.679217 6.353987 25.41595 0.397124 8.736733 0.397124 17.87059-1.191372 26.210198-1.985621 8.339609-4.765491 16.679217-8.736733 24.621702-4.368366 7.54536-9.530981 14.693596-15.487844 21.047583-6.353987 5.956863-13.502223 11.119478-21.047584 15.487845-7.942484 3.971242-15.884969 6.751112-24.621701 8.736732-8.736733 1.588497-17.473465 1.985621-26.210198 1.191373-8.736733-1.191373-17.076341-3.176994-25.41595-6.353987-7.942484-3.574118-15.487844-7.942484-22.238956-13.502224-6.751112-5.956863-12.707975-12.310851-17.473466-19.459086-4.765491-7.54536-8.339609-15.487844-11.119478-23.430329-2.382745-8.339609-3.574118-17.076341-3.971242-25.813074H404.490655c0.397124 10.722354 1.588497 21.444708 4.76549 31.372813 3.176994 9.928105 7.54536 19.856211 13.502224 28.592943s13.502223 16.679217 21.444707 23.430329c8.339609 6.751112 17.473465 11.913726 27.401571 16.282093 9.928105 3.971242 20.253335 6.353987 30.578565 7.54536 5.559739 0 10.722354 0.794248 15.884968 0h5.956864l1.985621-0.397124c2.77987-0.397124 5.162615-0.794248 7.942484-1.191373 10.32523-2.382745 20.253335-5.559739 29.784316-10.722354 9.133857-5.162615 17.87059-11.516602 25.41595-19.061962 7.54536-7.942484 13.899348-16.282093 19.061962-25.41595 4.765491-9.530981 8.339609-19.459087 10.722354-29.784316 0.397124-2.77987 0.794248-5.162615 1.191373-7.942484l0.397124-1.985621v-5.956864c0-4.368366-0.794248-9.530981-0.794248-15.09072z" fill="" p-id="7254"></path><path d="M657.45878 691.500165c-1.588497-14.296472-5.162615-28.195819-10.32523-41.698042-5.559739-13.105099-13.105099-25.41595-22.238956-36.932552-9.530981-11.119478-20.253335-20.650459-31.769937-28.990068-11.913726-7.942484-25.018826-13.899348-38.918173-18.267714-13.899348-3.971242-28.195819-5.956863-42.492291-6.353987v19.061962c12.707975 0.397124 25.018826 1.985621 36.932552 5.559739 11.913726 3.971242 23.033205 9.133857 33.755558 15.884969 10.32523 7.148236 19.459087 15.487844 27.798695 25.018825 7.942484 9.928105 14.296472 20.650459 19.061963 32.167062 4.765491 11.516602 7.54536 23.827453 9.133857 36.138303 0 6.353987 1.191373 12.707975 0.397124 18.664838V718.901736l-0.397124 2.382746c-0.397124 3.176994-0.794248 6.353987-1.191373 9.133856-2.77987 12.310851-6.751112 23.827453-12.707975 34.946931-5.956863 10.722354-13.502223 21.047583-22.238956 30.181441-9.133857 8.736733-19.061962 16.282093-30.18144 22.238956s-23.033205 9.928105-34.946931 12.707975c-3.176994 0.397124-6.353987 0.794248-9.133857 1.191372l-2.382746 0.397125H518.465305c-6.353987 0.794248-12.707975 0-18.664839-0.397125-12.310851-1.588497-24.621701-4.368366-36.138303-9.133856-11.516602-5.162615-22.238956-11.516602-32.167062-19.061963-9.530981-8.339609-17.87059-17.473465-25.018825-27.798695-6.751112-10.32523-11.913726-21.841832-15.884969-33.755558-3.574118-11.913726-5.162615-24.224577-5.559739-36.932552h-19.061962c0.397124 14.296472 2.382745 28.592944 6.353987 42.492291 4.368366 13.502223 10.32523 26.607322 18.267714 38.918173 8.339609 11.913726 17.87059 22.63608 28.990068 31.769937s23.827453 16.282093 36.932552 22.238956c13.105099 5.559739 27.401571 8.736733 41.698043 10.32523 7.148236 0 14.296472 1.191373 21.444707 0.397124l5.559739-0.397124h2.77987l2.779869-0.397124 10.722354-1.588497c13.899348-3.176994 27.798695-7.54536 40.50667-14.296472 12.707975-7.148236 24.224577-15.487844 34.549807-25.41595 9.928105-10.32523 18.664838-21.841832 25.41595-34.549807 6.751112-12.707975 11.516602-26.210198 14.296471-40.50667l1.588497-10.722353 0.397124-2.77987v-2.779869l0.397125-5.559739c0-6.353987-0.794248-13.502223-1.191373-20.65046z" fill="" p-id="7255"></path><path d="M695.582705 687.926047c-1.985621-17.87059-6.353987-35.741179-13.105099-52.420396-7.148236-16.679217-16.282093-32.167061-27.798695-46.463533-11.516602-13.899348-25.018826-26.210198-40.109546-36.535428-15.09072-9.928105-31.769937-17.473465-48.846279-23.033205-17.473465-5.162615-35.344055-7.54536-53.611769-7.942484v19.061962c16.282093 0.397124 32.564186 2.382745 48.05203 7.148236 15.487844 5.162615 30.18144 11.913726 43.683664 20.650459 13.502223 9.133857 25.41595 20.253335 36.138304 32.564186 10.32523 12.707975 18.664838 26.607322 25.018825 41.698043 6.353987 15.09072 9.928105 30.975689 11.913727 46.860657 0.397124 7.942484 1.191373 16.282093 0.397124 24.224577l-0.397124 5.956864v3.176993l-0.397125 3.176994-1.985621 11.913727c-3.574118 15.884969-8.736733 31.372813-16.282093 45.669284-7.942484 14.296472-17.473465 27.401571-28.990067 38.918174-11.516602 11.119478-25.018826 21.047583-38.918173 28.990067-14.296472 7.54536-29.784316 12.707975-45.669285 16.282093l-11.913727 1.985621-3.176993 0.397124h-3.176994l-5.956863 0.397125c-7.942484 0.794248-16.282093 0-24.224578-0.397125-16.282093-1.985621-32.167061-5.559739-46.860657-11.913726-14.693596-6.353987-28.990068-14.693596-41.698043-25.018826-12.310851-10.722354-23.430329-22.63608-32.564185-36.138303-8.736733-13.502223-15.884969-28.592944-20.65046-43.683664-4.765491-15.487844-6.751112-31.769937-7.148235-48.05203h-19.061963c0.397124 18.267714 2.77987 36.138304 7.942485 53.611769 5.559739 17.076341 13.105099 33.755558 23.033204 48.846279 10.32523 15.09072 22.63608 28.592944 36.535428 40.109545 14.296472 11.516602 29.784316 20.650459 46.463533 27.798695 16.679217 6.751112 34.549807 11.119478 52.420397 13.1051 9.133857 0.397124 18.267714 1.191373 27.004446 0.397124l5.956864 0.397124c1.191373 0 2.382745 0 3.574117-0.397124l3.176994-0.397124 13.502224-1.985622c17.87059-3.971242 34.946931-9.928105 50.831899-18.267713 15.884969-8.736733 30.578565-19.459087 43.683664-32.167062 12.707975-13.105099 23.430329-27.798695 32.167061-43.683664 8.339609-15.884969 14.296472-33.358434 18.267714-50.831899l1.985621-13.502224 0.397125-3.176993c0-1.191373 0-2.382745 0.397124-3.574118l0.397124-6.751112c0.794248-9.133857 0-18.267714-0.397124-27.004447z" fill="" p-id="7256"></path><path d="M289.324632 705.796637h19.061962c0.397124 19.856211 3.176994 39.712422 8.736733 59.171508 5.956863 19.061962 14.693596 37.329676 25.41595 54.008894 11.516602 16.282093 25.018826 31.372813 40.109546 44.080788 15.487844 12.707975 32.96131 22.63608 51.229024 30.578564 18.664838 7.54536 38.123925 12.310851 57.980135 14.693596 9.928105 0.397124 19.856211 1.588497 29.784316 0.397124l7.54536-0.397124c1.191373 0 2.382745 0 3.574118-0.397124l3.574118-0.397124 15.09072-1.985621c19.459087-4.368366 38.521049-10.722354 56.391639-20.253335 17.473465-9.530981 33.755558-21.444708 48.05203-35.74118 13.899348-14.296472 25.813074-30.578565 35.74118-48.05203 9.530981-17.87059 15.884969-36.535428 20.253335-56.391639l2.382745-14.693596 0.397124-3.574117c0-1.191373 0-2.382745 0.397124-3.574118l0.397125-7.54536c0.794248-9.928105 0-19.856211-0.397125-29.784317-2.382745-19.856211-6.751112-39.315297-14.693596-57.980135-7.942484-18.267714-18.267714-35.741179-30.578564-51.229024-12.707975-15.09072-27.798695-28.592944-44.080788-40.109546-16.679217-11.119478-34.946931-19.459087-54.008894-25.41595-19.061962-5.559739-39.315297-8.339609-59.171508-8.736732v-19.061963c21.841832 0.397124 43.683664 3.176994 64.731247 9.530982 20.650459 6.751112 40.903794 15.884969 59.171509 27.798695 17.87059 12.310851 34.152683 27.004447 48.449154 43.683663 13.899348 17.076341 25.018826 35.741179 33.755558 55.994515 8.339609 20.253335 13.502223 41.698043 15.884969 63.539874 0.397124 10.722354 1.588497 21.841832 0.397124 32.564186l-0.397124 8.339608c0 1.191373 0 2.77987-0.397124 3.971243l-0.794249 3.971242-2.382745 16.282093c-4.765491 21.444708-11.913726 42.095167-21.841832 61.554253-10.722354 19.061962-23.827453 36.932552-38.918173 52.420397-15.487844 15.09072-33.358434 28.195819-52.420397 38.918173-19.459087 10.32523-40.109546 17.473465-61.554253 21.841832l-16.282093 2.382745-3.971242 0.794248c-1.191373 0-2.77987 0-3.971242 0.397124l-8.339609 0.397125c-10.722354 0.794248-21.841832 0-32.564185-0.397125-21.841832-2.382745-43.28654-7.54536-63.539875-15.884968-20.253335-8.736733-38.918173-19.856211-55.994514-33.755558-16.679217-13.899348-31.372813-30.18144-43.683664-48.449155-11.913726-18.267714-21.444708-38.123925-27.798695-59.171508-7.54536-20.650459-10.32523-42.492291-10.722354-64.334123z" fill="" p-id="7257"></path><path d="M251.200707 705.796637h19.061963c0.397124 23.827453 3.574118 47.257782 10.325229 70.290986 7.148236 22.63608 17.076341 44.477912 30.181441 64.334123 13.502223 19.459087 29.387192 37.329676 47.654906 52.420397 18.267714 15.09072 38.918173 27.004447 60.760005 36.535428 21.841832 9.133857 45.272161 14.693596 68.702489 17.076341 11.913726 0.794248 23.827453 1.588497 35.344055 0.794248l8.736733-0.397124c1.588497 0 2.77987 0 4.368366-0.397124l4.368367-0.794249 17.473465-2.779869c23.033205-4.765491 45.669285-12.707975 66.716868-23.827453 20.650459-11.516602 40.109546-25.813074 56.788763-42.095167 16.679217-17.076341 30.975689-36.138304 42.095167-56.788763 11.119478-21.047583 19.061962-43.683664 23.827453-66.716868l2.77987-17.473465 0.794248-4.368367c0-1.588497 0-2.77987 0.397124-4.368366l0.397124-8.736733c1.191373-11.913726 0-23.827453-0.794248-35.344055-2.77987-23.430329-8.339609-46.860657-17.076341-68.702489-9.530981-21.841832-21.444708-42.492291-36.535428-60.760005-15.09072-18.267714-32.96131-34.152683-52.420397-47.654906-19.856211-13.105099-41.698043-23.033205-64.334123-30.181441-22.63608-6.751112-46.463533-9.928105-70.290986-10.325229v-19.061963c25.41595 0.397124 51.229024 3.971242 75.850725 11.119478a268.853094 268.853094 0 0 1 69.099614 32.564186c21.047583 14.296472 40.109546 31.769937 56.788763 51.229024 16.282093 19.856211 29.387192 42.095167 39.315297 65.525495 9.928105 23.827453 15.884969 48.846279 18.664838 74.262229 0.794248 12.707975 1.588497 25.41595 0.794249 38.123924l-0.397124 9.530982c0 1.588497 0 3.176994-0.397125 4.76549l-0.794248 4.765491c-0.794248 6.353987-1.985621 12.707975-2.77987 19.061962-5.162615 25.018826-13.899348 49.640527-25.813074 72.276607-12.310851 22.63608-27.798695 43.28654-45.669284 61.554254-18.267714 17.87059-38.918173 33.358434-61.554254 45.669285-22.63608 11.913726-47.257782 20.650459-72.276607 25.813074-6.353987 1.191373-12.707975 1.985621-19.061963 2.779869l-4.76549 0.794249c-1.588497 0-3.176994 0.397124-4.765491 0.397124l-9.530981 0.397124c-12.707975 1.191373-25.41595 0-38.123925-0.794248-25.41595-2.77987-50.434775-8.736733-74.262228-18.664839-23.430329-9.928105-45.669285-23.430329-65.525495-39.315297-19.459087-16.282093-36.932552-35.344055-51.229024-56.788763-14.296472-21.444708-25.018826-44.875036-32.564186-69.099613-6.353987-25.41595-9.928105-51.229024-10.32523-76.644974z" fill="" p-id="7258"></path><path d="M638.396818 693.485786c-1.588497-12.310851-4.368366-24.621701-9.133857-36.138303-5.162615-11.516602-11.516602-22.238956-19.061963-32.167062-8.339609-9.530981-17.473465-17.87059-27.798695-25.018825-10.32523-6.751112-21.841832-11.913726-33.755558-15.884969-11.913726-3.574118-24.224577-5.162615-36.932552-5.559739v19.061962c10.722354 0.397124 21.444708 1.588497 31.372813 4.765491 9.928105 3.176994 19.856211 7.54536 28.592943 13.502223s16.679217 13.502223 23.430329 21.444708c6.751112 8.339609 11.913726 17.473465 16.282093 27.401571 3.971242 9.928105 6.353987 20.253335 7.54536 30.578565 0 5.559739 0.794248 10.722354 0 15.884968v5.956863l-0.397124 1.985621c-0.397124 2.77987-0.794248 5.162615-1.191373 7.942485-2.382745 10.32523-5.559739 20.253335-10.722354 29.784316-5.162615 9.133857-11.516602 17.87059-19.061962 25.41595-7.942484 7.54536-16.282093 13.899348-25.41595 19.061962-9.530981 4.765491-19.459087 8.339609-29.784316 10.722354-2.77987 0.397124-5.162615 0.794248-7.942484 1.191373l-1.985621 0.397124h-5.956864c-5.162615 0.794248-10.722354-0.397124-15.884968 0-10.722354-1.588497-21.047583-3.574118-30.578565-7.54536-9.530981-4.368366-18.664838-9.530981-27.401571-16.282093-7.942484-7.148236-15.09072-15.09072-21.444707-23.430329-5.956863-8.736733-10.32523-18.664838-13.502224-28.592943-3.176994-10.32523-4.368366-20.650459-4.76549-31.372813H384.634444c0.397124 12.707975 1.985621 25.018826 5.559739 36.932552 3.971242 11.913726 9.133857 23.033205 15.884969 33.755558 7.148236 10.32523 15.487844 19.459087 25.018825 27.798695 9.928105 7.942484 20.650459 14.296472 32.167062 19.061962 11.516602 4.765491 23.827453 7.54536 36.138303 9.133857 6.353987 0 12.707975 1.191373 18.664838 0.397125H525.216416l2.382746-0.397125c3.176994-0.397124 6.353987-0.794248 9.133856-1.191372 12.310851-2.77987 23.827453-6.751112 34.946931-12.707975 10.722354-5.956863 21.047583-13.502223 30.181441-22.238956 8.736733-9.133857 16.282093-19.061962 22.238956-30.181441s9.928105-23.033205 12.707975-34.946931c0.397124-3.176994 0.794248-6.353987 1.191372-9.133857l0.397125-2.382745V713.341997c1.191373-7.54536 0.397124-13.899348 0-19.856211z" fill="#F2F2F2" p-id="7259"></path><path d="M676.520742 689.514544c-1.985621-16.282093-5.559739-32.167061-11.913726-46.860657-6.353987-14.693596-14.693596-28.990068-25.018826-41.698043-10.722354-12.310851-22.63608-23.430329-36.138303-32.564186-13.502223-8.736733-28.592944-15.884969-43.683664-20.650459-15.487844-4.765491-31.769937-6.751112-48.05203-7.148236v19.061963c14.296472 0.397124 28.592944 2.382745 42.492291 6.353987 13.502223 4.368366 26.607322 10.32523 38.918173 18.267714 11.913726 8.339609 22.63608 17.87059 31.769937 28.990068s16.282093 23.827453 22.238956 36.932552c5.559739 13.105099 8.736733 27.401571 10.32523 41.698043 0 7.148236 1.191373 14.296472 0.397124 21.444707l-0.397124 5.559739v2.77987l-0.397124 2.779869-1.588497 10.722354c-3.176994 13.899348-7.54536 27.798695-14.296472 40.50667-7.148236 12.707975-15.487844 24.224577-25.41595 34.549807-10.32523 9.928105-21.841832 18.664838-34.549806 25.41595-12.707975 6.751112-26.210198 11.516602-40.50667 14.296471l-10.722354 1.588497-2.77987 0.397124h-2.779869l-5.559739 0.397125c-7.148236 0.794248-14.296472 0-21.444708-0.397125-14.296472-1.588497-28.195819-5.162615-41.698043-10.325229-13.105099-5.559739-25.41595-13.105099-36.932552-22.238956-11.119478-9.530981-20.650459-20.253335-28.990067-31.769937-7.942484-11.913726-13.899348-25.018826-18.267714-38.918174-3.971242-13.899348-5.956863-28.195819-6.353988-42.492291h-19.061962c0.397124 16.282093 2.382745 32.564186 7.148236 48.05203 5.162615 15.487844 11.913726 30.18144 20.650459 43.683664 9.133857 13.502223 20.253335 25.41595 32.564186 36.138304 12.707975 10.32523 26.607322 18.664838 41.698042 25.018825 15.09072 6.353987 30.975689 9.928105 46.860658 11.913727 7.942484 0.397124 16.282093 1.191373 24.224577 0.397124l5.956863-0.397124h3.176994l3.176994-0.397124 11.913726-1.985621c15.884969-3.574118 31.372813-8.736733 45.669285-16.282093 14.296472-7.942484 27.401571-17.473465 38.918173-28.990068 11.119478-11.516602 21.047583-25.018826 28.990068-38.918173 7.54536-14.296472 12.707975-29.784316 16.282093-45.669285l1.985621-11.913726 0.397124-3.176994v-3.176994l0.397124-5.956863c1.588497-8.736733 0.794248-16.679217 0.397124-25.018826z" fill="#F2F2F2" p-id="7260"></path><path d="M714.644667 685.940426c-2.382745-19.856211-6.751112-39.315297-14.693596-57.980135-7.942484-18.267714-18.267714-35.741179-30.578564-51.229024-12.707975-15.09072-27.798695-28.592944-44.080788-40.109546-16.679217-11.119478-34.946931-19.459087-54.008894-25.41595-19.061962-5.559739-39.315297-8.339609-59.171508-8.736732v19.061962c18.267714 0.397124 36.138304 2.77987 53.611769 7.942484 17.076341 5.559739 33.755558 13.105099 48.846279 23.033205 15.09072 10.32523 28.592944 22.63608 40.109546 36.535428 11.516602 14.296472 20.650459 29.784316 27.798695 46.463533 6.751112 16.679217 11.119478 34.549807 13.105099 52.420396 0.397124 9.133857 1.191373 18.267714 0.397124 27.004447l-0.397124 6.751112c0 1.191373 0 2.382745-0.397124 3.574118l-0.397125 3.176993-1.985621 13.502224c-3.971242 17.87059-9.928105 34.946931-18.267714 50.831899-8.736733 15.884969-19.459087 30.578565-32.167061 43.683664-13.105099 12.707975-27.798695 23.430329-43.683664 32.167062-15.884969 8.339609-33.358434 14.296472-50.831899 18.267713l-13.502224 1.985622-3.176994 0.397124c-1.191373 0-2.382745 0-3.574117 0.397124l-6.751112 0.397124c-9.133857 0.794248-18.267714 0-27.004447-0.397124-17.87059-1.985621-35.741179-6.353987-52.420396-13.105099-16.679217-7.148236-32.167061-16.282093-46.463534-27.798695-13.899348-11.516602-26.210198-25.018826-36.535427-40.109546-9.928105-15.09072-17.473465-31.769937-23.033205-48.846279-5.162615-17.473465-7.54536-35.344055-7.942484-53.611769h-19.061963c0.397124 19.856211 3.176994 39.712422 8.736733 59.171508 5.956863 19.061962 14.693596 37.329676 25.41595 54.008894 11.516602 16.282093 25.018826 31.372813 40.109546 44.080788 15.487844 12.707975 32.96131 22.63608 51.229024 30.578564 18.664838 7.54536 38.123925 12.310851 57.980135 14.693596 9.928105 0.397124 19.856211 1.588497 29.784316 0.397125l7.54536-0.397125c1.191373 0 2.382745 0 3.574118-0.397124l3.574118-0.397124 15.09072-2.382745c19.459087-4.368366 38.521049-10.722354 56.391639-20.253335 17.473465-9.530981 33.755558-21.444708 48.05203-35.74118 13.899348-14.296472 25.813074-30.578565 35.74118-48.05203 9.530981-17.87059 15.884969-36.535428 20.253335-56.391639l2.382745-14.693596 0.397124-3.574117c0-1.191373 0-2.382745 0.397124-3.574118l0.397125-7.54536c0.397124-9.928105-0.397124-19.856211-0.794249-29.784317z" fill="#F2F2F2" p-id="7261"></path><path d="M752.371468 682.366308c-2.77987-23.430329-8.339609-46.860657-17.076342-68.702489-9.530981-21.841832-21.444708-42.492291-36.535428-60.760005-15.09072-18.267714-32.96131-34.152683-52.420396-47.654906-19.856211-13.105099-41.698043-23.033205-64.334123-30.18144C559.369099 468.316356 535.541646 465.139362 511.714193 464.742238v19.061963c21.841832 0.397124 43.683664 3.176994 64.731247 9.530981 20.650459 6.751112 40.903794 15.884969 59.171508 27.798695 17.87059 12.310851 34.152683 27.004447 48.449154 43.683664 13.899348 17.076341 25.018826 35.741179 33.755559 55.994514 8.339609 20.253335 13.502223 41.698043 15.884968 63.539874 0.397124 10.722354 1.588497 21.841832 0.397125 32.564186l-0.397125 8.339609c0 1.191373 0 2.77987-0.397124 3.971242l-0.794248 3.971242-2.382745 16.282093c-4.765491 21.444708-11.913726 42.095167-21.841832 61.554253-10.722354 19.061962-23.827453 36.932552-38.918173 52.420397-15.487844 15.09072-33.358434 28.195819-52.420397 38.918173-19.459087 10.32523-40.109546 17.473465-61.554253 21.841832l-16.282093 2.382745-3.971242 0.794248c-1.191373 0-2.77987 0-3.971243 0.397125l-8.339608 0.397124c-10.722354 0.794248-21.841832 0-32.564186-0.397124-21.841832-2.382745-43.28654-7.54536-63.539874-15.884969-20.253335-8.736733-38.918173-19.856211-55.994515-33.755558-16.679217-13.899348-31.372813-30.18144-43.683663-48.449155-11.913726-18.267714-21.444708-38.123925-27.798696-59.171508-6.353987-21.047583-9.133857-42.889415-9.530981-64.731247h-19.061962c0.397124 23.827453 3.574118 47.257782 10.32523 70.290986 7.148236 22.63608 17.076341 44.477912 30.18144 64.334123 13.502223 19.459087 29.387192 37.329676 47.654906 52.420397 18.267714 15.09072 38.918173 27.004447 60.760005 36.535428 21.841832 9.133857 45.272161 14.693596 68.702489 17.076341 11.913726 0.794248 23.827453 1.588497 35.344055 0.794248l8.736733-0.397124c1.588497 0 2.77987 0 4.368366-0.397124l4.368367-0.794249 17.473465-2.779869c23.033205-4.765491 45.669285-12.707975 66.716869-23.827453 20.650459-11.516602 40.109546-25.813074 56.788762-42.095167 16.679217-17.076341 30.975689-36.138304 42.095167-56.788763 11.119478-21.047583 19.061962-43.683664 23.827453-66.716868l2.77987-17.473465 0.794248-4.368367c0-1.588497 0-2.77987 0.397124-4.368366l0.397125-8.736733c1.588497-12.707975 0.794248-24.621701 0-36.138304z" fill="#F2F2F2" p-id="7262"></path><path d="M790.495392 678.395066c-3.176994-27.401571-9.530981-54.406018-19.85621-79.821967-10.722354-25.41595-25.018826-49.243403-42.095167-70.290986-17.473465-21.047583-38.123925-39.712422-60.760005-55.200266-23.033205-15.09072-48.05203-27.004447-74.262229-35.344055-26.607322-7.942484-54.008893-11.516602-81.01334-11.913727v19.061962c25.41595 0.397124 51.229024 3.971242 75.850726 11.119478a268.853094 268.853094 0 0 1 69.099613 32.564186c21.047583 14.296472 40.109546 31.769937 56.788763 51.229024 16.282093 19.856211 29.387192 42.095167 39.315297 65.525496 9.928105 23.827453 15.884969 48.846279 18.664838 74.262228 0.794248 12.707975 1.588497 25.41595 0.794249 38.123925l-0.397124 9.530981c0 1.588497 0 3.176994-0.397125 4.76549l-0.794248 4.765491c-0.794248 6.353987-1.985621 12.707975-2.77987 19.061962-5.162615 25.018826-13.899348 49.640527-25.813074 72.276608-12.310851 22.63608-27.798695 43.28654-45.669284 61.554253-18.267714 17.87059-38.918173 33.358434-61.554254 45.669285-22.63608 11.913726-47.257782 20.650459-72.276607 25.813074-6.353987 1.191373-12.707975 1.985621-19.061962 2.779869l-4.765491 0.794249c-1.588497 0-3.176994 0.397124-4.765491 0.397124l-9.530981 0.397124c-12.707975 1.191373-25.41595 0-38.123924-0.794248-25.41595-2.77987-50.434775-8.736733-74.262229-18.664838-23.430329-9.928105-45.669285-23.430329-65.525495-39.315298-19.459087-16.282093-36.932552-35.344055-51.229024-56.788763-14.296472-21.444708-25.018826-44.875036-32.564186-69.099613-7.54536-24.621701-10.722354-50.037651-11.119478-75.850725H232.138745c0.397124 27.401571 3.971242 54.803142 11.913727 81.01334 8.339609 26.210198 19.856211 51.229024 35.344055 74.262228 15.487844 22.63608 34.152683 43.28654 55.200266 60.760005 21.444708 17.076341 45.272161 31.372813 70.290986 42.095167 25.41595 10.32523 52.420396 17.076341 79.821967 19.856211 13.502223 0.794248 27.401571 1.985621 40.903794 0.794248l10.32523-0.397124c1.588497 0 3.574118 0 5.162615-0.397124l5.162615-0.794249c6.751112-0.794248 13.502223-1.985621 20.253335-3.176993 27.004447-5.559739 53.214645-14.693596 77.439222-27.798696s46.463533-29.784316 65.92262-48.846278c19.061962-19.459087 35.741179-41.698043 48.846278-65.92262 13.105099-24.224577 21.841832-50.434775 27.798695-77.439222 1.191373-6.751112 1.985621-13.502223 3.176994-20.253335l0.794248-5.162615c0-1.588497 0.397124-3.574118 0.397125-5.162615l0.397124-10.325229c0.794248-12.310851 0-25.813074-0.794249-39.712422z" fill="#F2F2F2" p-id="7263"></path><path d="M828.222193 674.820948c-3.574118-30.975689-10.722354-61.554253-22.636081-90.544321-12.310851-28.990068-28.195819-55.994514-48.05203-80.219091-19.856211-23.827453-43.28654-44.875036-69.099613-62.348502-26.210198-17.076341-54.406018-30.578565-84.587458-40.109546-30.18144-9.133857-61.157129-13.105099-92.132818-13.502223v19.061962c28.990068 0.397124 58.37726 4.368366 86.573079 12.707975 28.195819 8.736733 54.803142 21.444708 79.424843 37.7268 24.224577 16.679217 46.066409 36.138304 64.731247 58.774384 18.267714 22.63608 33.755558 48.05203 45.272161 75.056477 11.119478 27.401571 18.267714 55.994514 21.444707 85.381706 0.794248 14.693596 1.985621 28.990068 0.794249 43.683664l-0.794249 11.119478c0 1.985621 0 3.574118-0.397124 5.559739l-0.794248 5.559739c-1.191373 7.148236-1.985621 14.693596-3.176994 21.841832-5.956863 28.592944-15.884969 56.788763-29.784316 82.601837s-31.769937 49.640527-52.023272 70.290986c-21.047583 20.650459-44.477912 38.123925-70.290987 52.023272s-54.008893 23.430329-82.601836 29.784317c-7.148236 1.191373-14.296472 2.382745-21.841832 3.176993l-5.559739 0.794249c-1.985621 0.397124-3.574118 0.397124-5.559739 0.397124l-11.119478 0.794248c-14.693596 1.191373-29.387192 0-43.683664-0.794248-28.990068-3.176994-57.980135-9.928105-85.381706-21.444708-27.004447-11.516602-52.420396-26.607322-75.056477-45.27216-22.63608-18.664838-42.095167-40.50667-58.774384-64.731248-16.282093-24.621701-28.592944-51.229024-37.726801-79.424843-8.339609-28.195819-12.310851-57.583011-12.707975-86.573079H194.01482c0.397124 30.975689 4.765491 62.348502 13.502224 92.132818 9.530981 29.784316 22.63608 58.37726 40.109545 84.587458 17.473465 25.813074 38.521049 48.846279 62.348502 69.099614 24.224577 19.459087 51.229024 35.741179 80.219092 48.05203 28.990068 11.913726 59.568632 19.459087 90.544321 22.63608 15.487844 0.794248 30.975689 1.985621 46.463533 0.794249l11.516603-0.794249c1.985621 0 3.971242-0.397124 5.956863-0.397124l5.956863-0.794248c7.54536-1.191373 15.487844-2.382745 23.033205-3.574118 30.578565-6.353987 60.362881-16.679217 88.161575-31.372813 27.401571-15.09072 52.817521-33.755558 74.659353-55.597391 21.841832-22.238956 40.50667-47.257782 55.59739-74.659352 14.693596-27.798695 25.018826-57.583011 31.372813-88.161576 1.191373-7.54536 2.382745-15.487844 3.574118-23.033205l0.794249-5.956863c0.397124-1.985621 0.397124-3.971242 0.397124-5.956863l0.794248-11.516602c1.191373-15.884969 0.397124-31.372813-0.794248-46.860658z" fill="#F2F2F2" p-id="7264"></path><path d="M213.076783 705.796637h19.061962c0.397124 27.401571 3.971242 54.803142 11.913727 81.01334 8.339609 26.210198 19.856211 51.229024 35.344055 74.262228 15.487844 22.63608 34.152683 43.28654 55.200266 60.760005 21.444708 17.076341 45.272161 31.372813 70.290986 42.095167 25.41595 10.32523 52.420396 17.076341 79.821967 19.856211 13.502223 0.794248 27.401571 1.985621 40.903794 0.794249l10.32523-0.397125c1.588497 0 3.574118 0 5.162615-0.397124l5.162615-0.794248c6.751112-0.794248 13.502223-1.985621 20.253335-3.176994 27.004447-5.559739 53.214645-14.693596 77.439222-27.798695s46.463533-29.784316 65.92262-48.846279c19.061962-19.459087 35.741179-41.698043 48.846278-65.922619 13.105099-24.224577 21.841832-50.434775 27.798695-77.439223 1.191373-6.751112 1.985621-13.502223 3.176994-20.253335l0.794248-5.162614c0-1.588497 0.397124-3.574118 0.397125-5.162615l0.397124-10.32523c1.191373-13.502223 0-27.401571-0.794249-40.903794-3.176994-27.401571-9.530981-54.406018-19.85621-79.821967-10.722354-25.41595-25.018826-49.243403-42.095167-70.290987-17.473465-21.047583-38.123925-39.712422-60.760005-55.200265-23.033205-15.09072-48.05203-27.004447-74.262229-35.344056-26.607322-7.942484-54.008893-11.516602-81.01334-11.913726v-19.061963c28.990068 0.397124 58.37726 4.368366 86.573079 12.707975 28.195819 8.736733 54.803142 21.444708 79.424843 37.726801 24.224577 16.679217 46.066409 36.138304 64.731248 58.774384 18.267714 22.63608 33.755558 48.05203 45.27216 75.056477 11.119478 27.401571 18.267714 55.994514 21.444708 85.381706 0.794248 14.693596 1.985621 28.990068 0.794248 43.683664l-0.794248 11.119478c0 1.985621 0 3.574118-0.397124 5.559739l-0.794249 5.559739c-1.191373 7.148236-1.985621 14.693596-3.176994 21.841832-5.956863 28.592944-15.884969 56.788763-29.784316 82.601836s-31.769937 49.640527-52.023272 70.290987c-21.047583 20.650459-44.477912 38.123925-70.290986 52.023272s-54.008893 23.430329-82.601837 29.784316c-7.148236 1.191373-14.296472 2.382745-21.841832 3.176994l-5.559739 0.794248c-1.985621 0.397124-3.574118 0.397124-5.559739 0.397124l-11.119478 0.794249c-14.693596 1.191373-29.387192 0-43.683664-0.794249-28.990068-3.176994-57.980135-9.928105-85.381706-21.444707-27.004447-11.516602-52.420396-26.607322-75.056477-45.272161-22.63608-18.664838-42.095167-40.50667-58.774384-64.731247-16.282093-24.621701-28.592944-51.229024-37.7268-79.424843-8.736733-27.401571-12.707975-56.788763-13.105099-86.175955z" fill="" p-id="7265"></path></svg>